<svg width="31" height="31" viewBox="0 0 31 31" fill="none" xmlns="http://www.w3.org/2000/svg">
<path d="M14.8851 3.20928C14.7833 1.58821 16.2444 0.310274 17.8375 0.626969C19.3704 0.931694 20.2404 2.56348 19.6393 4.00611L15.9708 12.8092C15.9313 12.9039 15.8388 12.9655 15.7363 12.9655C15.6022 12.9655 15.4912 12.8613 15.4828 12.7274L14.8851 3.20928Z" fill="#AFD1BC" fill-opacity="0.3"/>
<path d="M23.6955 6.08584C24.7507 4.85433 26.6939 4.94992 27.6208 6.27893C28.5101 7.55411 28.0048 9.31893 26.5727 9.93872L17.7579 13.7539C17.6638 13.7946 17.5543 13.775 17.4804 13.7042C17.384 13.6118 17.3765 13.4608 17.4634 13.3595L23.6955 6.08584Z" fill="#AFD1BC" fill-opacity="0.3"/>
<path d="M27.7961 14.3803C29.4133 14.2799 30.6862 15.7399 30.3664 17.3283C30.0604 18.8479 28.445 19.7117 27.0114 19.1225L18.1034 15.461C18.009 15.4222 17.9474 15.3303 17.9474 15.2283C17.9474 15.0953 18.0508 14.9853 18.1834 14.9771L27.7961 14.3803Z" fill="#AFD1BC" fill-opacity="0.3"/>
<path d="M24.6123 23.6305C25.8377 24.6947 25.7152 26.6234 24.3649 27.5264C23.0695 28.3927 21.3001 27.8677 20.6955 26.4375L16.9719 17.6306C16.9322 17.5366 16.9534 17.4281 17.0256 17.3556C17.1199 17.2611 17.2719 17.2557 17.3728 17.3433L24.6123 23.6305Z" fill="#AFD1BC" fill-opacity="0.3"/>
<path d="M16.4572 27.5846C16.6169 29.201 15.2025 30.5297 13.5991 30.2695C12.0563 30.0191 11.1283 28.4191 11.6775 26.9562L15.0286 18.029C15.0646 17.933 15.1548 17.8681 15.2573 17.8645C15.3913 17.8598 15.506 17.9601 15.5192 18.0935L16.4572 27.5846Z" fill="#AFD1BC" fill-opacity="0.3"/>
<path d="M7.29719 24.4652C6.23388 25.6897 4.29138 25.5812 3.37337 24.2461C2.49256 22.965 3.00961 21.2037 4.4456 20.5935L13.2861 16.8364C13.3804 16.7963 13.4898 16.8166 13.5632 16.8879C13.659 16.9809 13.6654 17.1319 13.5779 17.2327L7.29719 24.4652Z" fill="#AFD1BC" fill-opacity="0.3"/>
<path d="M3.46153 16.0295C1.85032 16.2008 0.513644 14.7982 0.762454 13.1972C1.00047 11.6657 2.57589 10.7318 4.03441 11.2575L13.0966 14.5241C13.1926 14.5587 13.2583 14.6479 13.2628 14.7498C13.2687 14.8826 13.1703 14.997 13.0381 15.0111L3.46153 16.0295Z" fill="#AFD1BC" fill-opacity="0.3"/>
<path d="M6.12338 6.85111C4.88552 5.80152 4.98515 3.87156 6.32463 2.95269C7.60961 2.0712 9.38487 2.57516 10.0065 3.99787L13.835 12.7609C13.8759 12.8544 13.856 12.9632 13.7846 13.0364C13.6914 13.1321 13.5395 13.1393 13.4376 13.0529L6.12338 6.85111Z" fill="#AFD1BC" fill-opacity="0.3"/>
<ellipse cx="15.4988" cy="15.3968" rx="1.63158" ry="1.62067" fill="#AFD1BC" fill-opacity="0.3"/>
</svg>
