<svg width="60" height="60" viewBox="0 0 60 60" fill="none" xmlns="http://www.w3.org/2000/svg">
<path d="M28.8119 6.21152C28.6149 3.07395 31.4428 0.600531 34.5262 1.21349C37.493 1.80328 39.1771 4.96157 38.0135 7.75375L30.9132 24.792C30.8369 24.9753 30.6578 25.0946 30.4593 25.0946C30.1998 25.0945 29.985 24.8928 29.9687 24.6337L28.8119 6.21152Z" fill="#DCC79C" fill-opacity="0.3"/>
<path d="M45.8659 11.7789C47.9082 9.39537 51.6692 9.58038 53.4632 12.1527C55.1846 14.6208 54.2064 18.0365 51.4348 19.2361L34.3738 26.6202C34.1916 26.6991 33.9796 26.6611 33.8367 26.5241C33.6501 26.3453 33.6357 26.0531 33.8038 25.857L45.8659 11.7789Z" fill="#DCC79C" fill-opacity="0.3"/>
<path d="M53.7988 27.8326C56.929 27.6383 59.3927 30.4641 58.7736 33.5385C58.1815 36.4796 55.0549 38.1515 52.2801 37.011L35.0387 29.9243C34.8561 29.8493 34.7368 29.6713 34.7368 29.4738C34.7368 29.2165 34.9369 29.0036 35.1937 28.9877L53.7988 27.8326Z" fill="#DCC79C" fill-opacity="0.3"/>
<path d="M47.635 45.7364C50.0067 47.7962 49.7697 51.5291 47.1563 53.2769C44.649 54.9536 41.2244 53.9375 40.0541 51.1694L32.8472 34.1237C32.7703 33.9418 32.8113 33.7318 32.9512 33.5916C33.1337 33.4087 33.4279 33.3982 33.6231 33.5677L47.635 45.7364Z" fill="#DCC79C" fill-opacity="0.3"/>
<path d="M31.8527 53.3895C32.1619 56.5181 29.4243 59.0898 26.3209 58.5861C23.3348 58.1015 21.5388 55.0047 22.6017 52.1733L29.0877 34.8949C29.1574 34.7091 29.332 34.5835 29.5304 34.5765C29.7898 34.5674 30.0117 34.7614 30.0372 35.0197L31.8527 53.3895Z" fill="#DCC79C" fill-opacity="0.3"/>
<path d="M14.1226 47.352C12.0646 49.7219 8.30489 49.5119 6.52809 46.9278C4.82331 44.4484 5.82403 41.0394 8.60339 39.8582L25.7139 32.5866C25.8966 32.5089 26.1083 32.5483 26.2504 32.6862C26.4358 32.8663 26.4482 33.1585 26.2789 33.3536L14.1226 47.352Z" fill="#DCC79C" fill-opacity="0.3"/>
<path d="M6.70174 31.0248C3.58327 31.3564 0.996158 28.6416 1.47773 25.543C1.9384 22.5788 4.98761 20.7712 7.81055 21.7887L25.3503 28.1112C25.5361 28.1782 25.6632 28.3507 25.6719 28.548C25.6834 28.805 25.493 29.0265 25.2371 29.0537L6.70174 31.0248Z" fill="#DCC79C" fill-opacity="0.3"/>
<path d="M11.8501 13.2603C9.45422 11.2288 9.64705 7.49341 12.2396 5.71495C14.7266 4.00885 18.1626 4.98424 19.3657 7.73788L26.7758 24.6986C26.8549 24.8796 26.8164 25.0901 26.6782 25.2319C26.4979 25.417 26.2038 25.4309 26.0067 25.2637L11.8501 13.2603Z" fill="#DCC79C" fill-opacity="0.3"/>
<ellipse cx="30.0016" cy="29.8003" rx="3.1579" ry="3.13679" fill="#DCC79C" fill-opacity="0.3"/>
</svg>
