<svg width="56" height="79" viewBox="0 0 56 79" fill="none" xmlns="http://www.w3.org/2000/svg">
<path d="M23.7714 27.0598C21.1916 25.2631 21.0128 21.5104 23.4101 19.4767C25.7169 17.5199 29.2375 18.1648 30.7007 20.8123L39.6298 36.9674C39.7258 37.1412 39.7079 37.3556 39.5845 37.511C39.4231 37.7143 39.1315 37.757 38.9185 37.6087L23.7714 27.0598Z" fill="#DCC79C" fill-opacity="0.3"/>
<path d="M38.7368 17.1656C38.1399 14.0841 40.6234 11.2536 43.7535 11.448C46.7568 11.6346 48.8237 14.5246 48.0398 17.4411L43.2143 35.3944C43.1628 35.586 43.0013 35.7285 42.8051 35.7552C42.549 35.7902 42.3112 35.6198 42.2621 35.3662L38.7368 17.1656Z" fill="#DCC79C" fill-opacity="0.3"/>
<path d="M46.8586 64.1465C47.435 67.2319 44.9327 70.0458 41.8041 69.8306C38.8023 69.624 36.7547 66.7206 37.5578 63.8094L42.5022 45.8873C42.5549 45.696 42.7174 45.5546 42.9138 45.5291C43.1701 45.4959 43.4067 45.6679 43.4541 45.9218L46.8586 64.1465Z" fill="#DCC79C" fill-opacity="0.3"/>
<path d="M29.456 59.8052C27.7766 62.4537 24.0418 62.7919 21.9145 60.488C19.8795 58.2841 20.3597 54.772 22.912 53.1939L38.7698 43.3885C38.9378 43.2846 39.1519 43.2924 39.3119 43.4082C39.5203 43.559 39.5754 43.8459 39.4376 44.0632L29.456 59.8052Z" fill="#DCC79C" fill-opacity="0.3"/>
<path d="M18.7458 44.727C15.6651 45.3402 12.8595 42.8665 13.0787 39.7302C13.2889 36.7216 16.1894 34.6371 19.094 35.4071L36.9848 40.1498C37.1758 40.2004 37.3167 40.3615 37.3418 40.5579C37.3746 40.8142 37.2027 41.0531 36.9492 41.1036L18.7458 44.727Z" fill="#DCC79C" fill-opacity="0.3"/>
<ellipse cx="42.9867" cy="40.7971" rx="3.15789" ry="3.13679" transform="rotate(-51.5523 42.9867 40.7971)" fill="#DCC79C" fill-opacity="0.3"/>
</svg>
