<svg width="108" height="16" viewBox="0 0 108 16" fill="none" xmlns="http://www.w3.org/2000/svg">
<path d="M10.9755 7.64738C11.5753 6.83196 11.8864 5.86226 11.8864 4.87052C11.8864 2.53444 10.2201 0.220386 6.86522 0.220386H0V15.6474H7.39844C10.7533 15.6474 12.4418 13.3333 12.4418 11.0193C12.4418 9.78512 11.953 8.52892 10.9755 7.64738ZM6.97631 6.39118H3.11046V3.30579H6.86522C8.17606 3.30579 8.84258 4.07714 8.84258 4.84849C8.84258 5.5978 8.22049 6.34711 6.97631 6.39118ZM7.39844 12.562H3.11046V9.47658H6.86522C6.90966 9.47658 6.97631 9.47658 7.02074 9.47658H7.39844C8.73149 9.47658 9.39802 10.2479 9.39802 11.0193C9.39802 11.7906 8.70928 12.562 7.39844 12.562Z" fill="white"/>
<path d="M21.8433 0C17.2443 0 14.6671 3.41598 14.6671 8C14.6671 12.6722 17.1332 16 21.8433 16C26.4646 16 29.0418 12.6722 29.0418 8C29.0418 3.41598 26.4646 0 21.8433 0ZM21.8433 12.9146C19.155 12.9146 17.7331 10.865 17.7331 8C17.7331 5.17906 19.1994 3.0854 21.8433 3.0854C24.4872 3.0854 25.9758 5.17906 25.9758 8C25.9758 10.865 24.4872 12.9146 21.8433 12.9146Z" fill="white"/>
<path d="M40.5965 0.264463V9.52066C40.5965 11.8347 39.0413 13.0028 37.486 13.0028C35.9308 13.0028 34.3756 11.8347 34.3756 9.52066V0.220386H31.2651V9.52066C31.2651 13.7741 34.3756 15.8898 37.486 15.8898C40.5965 15.8898 43.7069 13.7741 43.7069 9.52066V0.264463H40.5965Z" fill="white"/>
<path d="M45.9322 0.220386V3.30579H50.5979V15.6474H53.7083V3.30579H58.3518V0.220386H45.9322Z" fill="white"/>
<path d="M60.5775 0.220386V15.6474H63.688V0.220386H60.5775Z" fill="white"/>
<path d="M80.2897 8C80.2897 3.41598 77.7124 0 73.0912 0C68.4922 0 65.9149 3.41598 65.9149 8C65.9149 12.6722 68.3811 16 73.0912 16C74.4243 16 75.6018 15.7135 76.5794 15.2066L76.8682 15.6474H80.2897L78.7345 13.3554C79.7565 11.9669 80.2897 10.1157 80.2897 8ZM73.0912 12.9146C70.4029 12.9146 68.981 10.865 68.981 8C68.981 5.17906 70.4473 3.0854 73.0912 3.0854C75.7351 3.0854 77.2237 5.17906 77.2237 8C77.2237 8.90358 77.0681 9.71901 76.7793 10.4242L76.2239 9.58678H72.7802L74.802 12.584C74.3132 12.8044 73.7355 12.9146 73.0912 12.9146Z" fill="white"/>
<path d="M91.8444 0.264463V9.52066C91.8444 11.8347 90.2891 13.0028 88.7339 13.0028C87.1787 13.0028 85.6235 11.8347 85.6235 9.52066V0.220386H82.513V9.52066C82.513 13.7741 85.6235 15.8898 88.7339 15.8898C91.8444 15.8898 94.9548 13.7741 94.9548 9.52066V0.264463H91.8444Z" fill="white"/>
<path d="M108 3.30579V0.220386H97.1801V15.6474H108V12.562H100.291V9.47658H106.511V6.39118H100.291V3.30579H108Z" fill="white"/>
</svg>
