<svg width="55" height="55" viewBox="0 0 55 55" fill="none" xmlns="http://www.w3.org/2000/svg">
<circle cx="27.5" cy="27.5" r="27.5" fill="white"/>
<path d="M25 38H31C36 38 38 36 38 31V25C38 20 36 18 31 18H25C20 18 18 20 18 25V31C18 36 20 38 25 38Z" stroke="black" stroke-linecap="round" stroke-linejoin="round"/>
<path d="M28 31.5C29.933 31.5 31.5 29.933 31.5 28C31.5 26.067 29.933 24.5 28 24.5C26.067 24.5 24.5 26.067 24.5 28C24.5 29.933 26.067 31.5 28 31.5Z" stroke="black" stroke-linecap="round" stroke-linejoin="round"/>
<path d="M33.6361 23H33.6477" stroke="black" stroke-width="1.5" stroke-linecap="round" stroke-linejoin="round"/>
</svg>
