<svg width="60" height="61" viewBox="0 0 60 61" fill="none" xmlns="http://www.w3.org/2000/svg">
<path d="M37.5 18.4956H48.3075C49.33 18.4956 50.25 19.1181 50.6275 20.0681L54.6425 30.1031C54.8775 30.6931 55 31.3231 55 31.9581V46.8281C55 48.2081 53.88 49.3281 52.5 49.3281H47.9225" stroke="black" stroke-linecap="round" stroke-linejoin="round"/>
<path d="M39.9998 49.5454H20.4248" stroke="black" stroke-linecap="round" stroke-linejoin="round"/>
<path d="M55 35.9956H45V25.9956H53" stroke="black" stroke-linecap="round" stroke-linejoin="round"/>
<path d="M31.39 13.4956H35C36.38 13.4956 37.5 14.6156 37.5 15.9956V38.4956H5" stroke="black" stroke-linecap="round" stroke-linejoin="round"/>
<path d="M46.7606 46.7354C48.3081 48.2829 48.3081 50.7904 46.7606 52.3354C45.2131 53.8829 42.7056 53.8829 41.1606 52.3354C39.6131 50.7879 39.6131 48.2804 41.1606 46.7354C42.7081 45.1904 45.2156 45.1904 46.7606 46.7354" stroke="black" stroke-linecap="round" stroke-linejoin="round"/>
<path d="M19.2597 46.7354C20.8072 48.2829 20.8072 50.7904 19.2597 52.3354C17.7122 53.8829 15.2047 53.8829 13.6597 52.3354C12.1147 50.7879 12.1122 48.2804 13.6597 46.7354C15.2072 45.1904 17.7122 45.1904 19.2597 46.7354" stroke="black" stroke-linecap="round" stroke-linejoin="round"/>
<path d="M12.5 49.5356H7.5C6.12 49.5356 5 48.4156 5 47.0356V15.9956C5 14.6156 6.12 13.4956 7.5 13.4956H10.595" stroke="black" stroke-linecap="round" stroke-linejoin="round"/>
<path d="M20.9932 24.2906C15.2507 24.2906 10.5957 19.6356 10.5957 13.8931C10.5957 8.26811 15.3782 3.49061 21.0007 3.49561C26.7407 3.50061 31.3882 8.15311 31.3882 13.8931C31.3882 19.6331 26.7357 24.2906 20.9932 24.2906" stroke="black"/>
<path d="M25.6116 11.5835L19.8341 17.361L16.3691 13.8935" stroke="black" stroke-linecap="round" stroke-linejoin="round"/>
</svg>
