<svg width="61" height="61" viewBox="0 0 61 61" fill="none" xmlns="http://www.w3.org/2000/svg">
<path d="M52.1742 14.8384V19.8384H47.1742H52.1742" stroke="black" stroke-linecap="round" stroke-linejoin="round"/>
<path d="M19.3007 27.818C19.3007 25.7905 20.9457 24.1455 22.9732 24.1455C25.0007 24.1455 26.6457 25.7905 26.6457 27.818C26.6457 32.408 19.3032 32.408 19.3032 37.843H26.6457" stroke="black" stroke-linecap="round" stroke-linejoin="round"/>
<path d="M40.0684 31.0704L33.7884 31.0029C33.4334 30.9979 33.1459 30.7104 33.1459 30.3529V24.1479" stroke="black" stroke-linecap="round" stroke-linejoin="round"/>
<path d="M40.0575 24.2959V37.8459" stroke="black" stroke-linecap="round" stroke-linejoin="round"/>
<path d="M51.0834 19.8406C47.0759 12.5856 39.2884 7.66309 30.3334 7.66309C17.4459 7.66309 7.00085 18.1106 7.00085 30.9956C7.00085 43.8806 17.4459 54.3281 30.3334 54.3281C43.2209 54.3281 53.6659 43.8806 53.6659 30.9956" stroke="black" stroke-linecap="round" stroke-linejoin="round"/>
</svg>
